<?xml version="1.0" encoding="UTF-8"?>
<svg xmlns:svg="http://www.w3.org/2000/svg" xmlns="http://www.w3.org/2000/svg" version="1.1" width="600" height="81" id="augustlogo">
<!-- A -->
    <path fill="#FFFFFF" id="letter_a" d="m 78.360285,79.357223 c 1.154271,0 1.671178,-0.841465 1.144452,-1.87528 L 40.830925,2.6433641 c -0.536903,-1.033831 -1.407875,-1.033831 -1.944779,0 l -6.41159,12.4053089 c -0.537023,1.033826 -0.537023,2.726598 0,3.75012 l 22.648609,43.834864 c 0.527206,1.034305 0.0206,1.87524 -1.144452,1.87524 l -44.9535702,0 c -1.1548089,0 -2.5425563,0.841533 -3.0794953,1.875359 L 0.21273513,77.481943 c -0.53694848,1.033815 -0.0205757,1.87528 1.13423327,1.87528 l 77.0133166,0">
    </path>
    <!-- U -->
    <path fill="#FFFFFF" id="letter_u" d="m 175.93879,1.8042271 -12.5102,0 c -0.67891,0 -1.22491,0.527031 -1.28598,1.185498 0,0.04074 -0.0108,0.07112 -0.0108,0.101597 0,0.04064 0.0108,0.07102 0.0108,0.101004 l 0,42.8623779 c 0,11.229752 -4.69012,17.858506 -12.56047,18.882028 -2.04632,0.304194 -5.23732,0.395488 -8.40678,0 -7.87155,-1.064257 -12.56047,-7.895247 -12.56047,-19.429073 l 0,-42.3153329 c 0,-0.0299 0.01,-0.06038 0.01,-0.101004 0,-0.03048 -0.01,-0.06086 -0.01,-0.09125 -0.0515,-0.66877 -0.5975,-1.195802 -1.28718,-1.195802 l -12.50924,0 c -0.70908,0 -1.28621,0.577592 -1.28621,1.287096 l 0,42.8519599 c 0,21.892212 10.43321,33.436405 27.6431,34.267107 4.59793,0.365041 7.60693,0.03042 8.40678,-0.0098 17.00752,-0.983264 27.64262,-12.45636 27.64262,-34.804802 l 0,-42.3044299 c 0,-0.709505 -0.57713,-1.287106 -1.28597,-1.287106"> 
    </path>

    <!-- G -->    
    <path fill="#FFFFFF" id="letter_g" d="m 286.18838,42.982819 c 0,-0.0103 0,-0.0103 0,-0.0103 l 0,-0.05056 -0.0108,0 c -0.0299,-0.648642 -0.53642,-1.175679 -1.1854,-1.216414 -0.0299,-0.0103 -0.0599,-0.0103 -0.091,-0.0103 -0.0407,0 -0.0611,0 -0.091,0.0103 l -13.31003,0 c -0.0407,-0.0103 -0.0611,-0.0103 -0.10058,-0.0103 -0.0312,0 -0.0611,0 -0.0921,0.0103 -0.65735,0.04073 -1.19498,0.598203 -1.19498,1.277277 l 0,15.314377 c 0.0706,-1.297285 0,4.145008 0,4.145008 l 0,-4.145008 c -0.01,0.172164 -0.0204,0.445926 -0.0299,0.881669 -0.0107,0.334145 -0.0204,0.648642 -0.0407,0.932228 -0.0299,0.628515 -0.37478,1.398882 -0.83098,1.966534 -0.20235,0.233147 -0.44542,0.455871 -0.69807,0.628155 -0.14248,0.101478 -0.29455,0.182468 -0.44661,0.263938 -9.11563,5.310862 -22.80045,2.847723 -29.51652,-5.290735 -5.4792,-6.61857 -6.66461,-14.290975 -5.68275,-22.540854 1.61047,-13.419489 13.77581,-22.378873 26.89306,-20.189617 0.0922,0.02013 0.83098,0.121725 0.92199,0.131549 1.88466,0.334625 2.36002,-0.597604 2.79586,-1.27668 0.091,-0.142332 0.13172,-0.243326 0.13172,-0.243326 0,0 4.2447,-6.9831469 4.84219,-8.2907349 0.98184,-1.976357 1.05369,-3.202955 -2.13731,-4.013578 C 262.2829,0.35394513 256.87435,-0.39629387 251.60709,0.23222013 242.54056,1.0835781 234.61992,4.4887691 228.06548,10.85407 c -7.89071,7.641971 -11.5463,17.219567 -11.77979,27.993449 -0.29336,13.560742 4.39556,25.07456 15.44735,33.476585 9.35869,7.115021 20.11712,8.929464 31.48142,7.753844 7.24292,-0.750205 13.93865,-3.122031 19.6202,-7.652283 0.29456,-0.212947 0.56756,-0.435719 0.8214,-0.689365 0.32329,-0.303738 0.62743,-0.62806 0.89085,-0.982812 0.99262,-1.297296 1.59012,-2.909125 1.63082,-4.66228 0,0 0,-0.01019 0.0108,-0.01019 l 0,-0.13155 c 0,-0.02061 0,-0.03091 0,-0.05104 0,-0.0103 0,-0.03043 0,-0.04074 l 0,-22.865056 c 0,0 0,0 0,-0.0098">
    </path>
    
    <!-- U -->
    <path fill="#FFFFFF" id="letter_u2" d="m 388.57003,1.8660481 -12.51976,0 c -0.66934,0 -1.22611,0.526917 -1.2764,1.185498 0,0.04064 -0.0108,0.07102 -0.0108,0.101482 0,0.04073 0.0108,0.07121 0.0108,0.101598 l 0,42.8618989 c 0,11.229632 -4.69012,17.858386 -12.56048,18.881909 -2.04632,0.304193 -5.23732,0.395487 -8.40798,0 -7.87035,-1.064138 -12.55927,-7.905432 -12.55927,-19.429074 l 0,-42.3147339 c 0,-0.03048 0.01,-0.07121 0.01,-0.101598 0,-0.03048 -0.01,-0.06086 -0.01,-0.09115 -0.0516,-0.668885 -0.59869,-1.195802 -1.28719,-1.195802 l -12.50898,0 c -0.71004,0 -1.28718,0.577476 -1.28718,1.286981 l 0,42.8520749 c 0,21.881909 10.43393,33.436361 27.64262,34.267063 4.59913,0.365041 7.60813,0.03042 8.40798,-0.02013 17.00753,-0.972971 27.64263,-12.446017 27.64263,-34.804283 l 0,-42.2947269 c 0,-0.709505 -0.57714,-1.286981 -1.28599,-1.286981">
        
    </path>

    <!-- S -->
    <path fill="#FFFFFF" id="letter_s" d="m 475.48277,36.407859 c -3.41371,-1.560863 -7.10043,-2.574561 -10.71651,-3.648522 -4.47699,-1.338019 -9.06533,-2.311102 -13.50281,-3.760424 -2.62345,-0.861661 -4.26385,-2.847843 -4.20279,-5.908586 0.0707,-3.142092 1.10398,-5.746965 4.10221,-7.044249 1.61047,-0.699202 3.41372,-1.165376 5.16548,-1.307229 7.2525,-0.588259 13.71474,1.520128 19.59027,5.746606 0.0299,0.02013 0.0503,0.03043 0.0707,0.05056 0.20236,0.132029 0.44543,0.212899 0.70885,0.212899 0.43585,0 0.81062,-0.223202 1.05369,-0.557348 0.0108,-0.02061 0.0204,-0.04074 0.0407,-0.06086 2.25825,-3.638699 4.49735,-7.246489 6.90766,-11.1183289 0.10178,-0.12161 0.19279,-0.253638 0.25385,-0.395367 0.0503,-0.152157 0.0814,-0.304198 0.0814,-0.466179 0,-0.435738 -0.21313,-0.810978 -0.53762,-1.044124 -0.11135,-0.08099 -0.22271,-0.131435 -0.35442,-0.182474 -3.08924,-1.560863 -5.87433,-3.20259 -8.89291,-4.104393 -4.82184,-1.429313 -12.37848,-3.46653397 -21.90001,-2.57444097 -5.27684,0.567652 -10.02803,2.43210897 -14.27153,5.64501297 -10.46387,7.9358619 -12.56048,28.8654139 2.71444,36.3959639 3.54424,1.753634 7.33274,3.060743 11.12123,4.266733 4.63985,1.470048 9.44132,2.422404 14.0596,3.952836 3.12994,1.044009 5.20619,3.24369 4.91284,6.99333 -0.273,3.385424 -2.16726,6.202836 -5.85518,7.064378 -3.15987,0.729633 -6.5233,1.155551 -9.72389,0.902396 -6.75559,-0.527516 -12.70176,-3.203075 -17.89837,-7.702835 -0.0707,-0.07117 -0.15207,-0.132029 -0.22271,-0.203195 -0.21314,-0.13143 -0.44543,-0.212899 -0.71963,-0.212899 -0.42507,0 -0.79985,0.212899 -1.03213,0.53722 -0.0203,0.03043 -0.0407,0.06086 -0.0611,0.09129 -2.48216,3.810983 -4.76076,7.307828 -7.24293,11.138914 -0.01,0 -0.01,0 -0.01,0 0,0.02013 -0.0107,0.02013 -0.0204,0.04026 -0.12213,0.202644 -0.19277,0.425883 -0.19277,0.679062 0,0.405767 0.19277,0.770331 0.48613,1.003395 0.0407,0.03043 0.0706,0.06085 0.11135,0.08143 11.87199,8.685639 24.87789,11.28024 39.00813,8.239637 9.22817,-1.986206 15.80177,-7.3275 18.55693,-16.723071 3.35266,-11.412221 -0.85133,-21.111542 -11.58821,-26.027396">
    </path>
    
    <!-- T -->    
    <path fill="#FFFFFF" id="letter_t" d="m 521.54943,2.7955201 c -1.16505,0 -1.67153,0.84093 -1.14469,1.874761 l 38.72434,74.9303029 c 0.53643,1.033346 1.40811,1.033346 1.93376,0 l 6.42273,-12.425952 c 0.53642,-1.033706 0.53642,-2.716174 0,-3.75 L 544.81564,19.53873 c -0.53642,-1.033826 -0.0204,-1.874881 1.1447,-1.874881 l 45.00458,0 c 1.16504,0 2.54322,-0.841414 3.07965,-1.875239 l 5.74261,-11.1183289 c 0.53762,-1.033831 0.0204,-1.874761 -1.14349,-1.874761 l -77.09426,0">
    </path>

</svg>